<svg width="46" height="46" viewBox="0 0 46 46" fill="none" xmlns="http://www.w3.org/2000/svg">
<path d="M43.125 23C43.1262 23.4881 43.001 23.9682 42.7617 24.3936C42.5224 24.819 42.1771 25.1752 41.7594 25.4276L15.87 41.2653C15.4335 41.5326 14.9336 41.6785 14.4219 41.6879C13.9101 41.6974 13.4051 41.5701 12.9591 41.3192C12.5172 41.0721 12.1492 40.7119 11.8927 40.2754C11.6363 39.839 11.5007 39.3421 11.5 38.8359V7.16418C11.5007 6.65798 11.6363 6.1611 11.8927 5.72465C12.1492 5.28821 12.5172 4.92794 12.9591 4.6809C13.4051 4.42997 13.9101 4.30266 14.4219 4.31214C14.9336 4.32161 15.4335 4.46753 15.87 4.73481L41.7594 20.5725C42.1771 20.8249 42.5224 21.1811 42.7617 21.6065C43.001 22.0319 43.1262 22.512 43.125 23Z" fill="#F8F8F8"/>
</svg>
